<svg fill="none" height="44" viewBox="0 0 44 44" width="44" xmlns="http://www.w3.org/2000/svg"><rect height="42" rx="9" stroke="#ff5900" stroke-width="2" width="42" x="1" y=".999725"/><path clip-rule="evenodd" d="m15.0072 13.5926c-.3906-.3905-1.0237-.3905-1.4143 0-.3905.3905-.3905 1.0237 0 1.4142l6.9021 6.9021-6.9018 6.9019c-.3905.3905-.3905 1.0237 0 1.4142s1.0237.3905 1.4142 0l6.9019-6.9019 6.9018 6.9019c.3905.3905 1.0237.3905 1.4142 0s.3905-1.0237 0-1.4142l-6.9018-6.9019 6.9021-6.9021c.3905-.3905.3905-1.0237 0-1.4142-.3906-.3905-1.0237-.3905-1.4142 0l-6.9021 6.9021z" fill="#ff5900" fill-rule="evenodd"/></svg>