<svg fill="none" height="120" viewBox="0 0 120 120" width="120" xmlns="http://www.w3.org/2000/svg" xmlns:xlink="http://www.w3.org/1999/xlink"><clipPath id="a"><path d="m20 23.0926h80v74.8148h-80z"/></clipPath><rect fill="#ff5900" height="120" rx="17.9739" width="120"/><g clip-path="url(#a)" fill="#fff"><path d="m90.2185 32.4042c.6478 1.3693 1.0364 2.9159 1.0364 4.6074v46.9767c0 1.6755-.3886 3.222-1.0364 4.5914 5.0041.8377 9.7814-3.1254 9.7814-8.5866v-39.0023c0-5.4935-4.7935-9.4244-9.7814-8.5866z"/><path d="m90.2195 32.4042c-2.1377-4.4786-7.2551-7.0079-12.2429-5.3969 1.7328 1.9977 2.8178 4.6397 2.8178 7.6361v51.697c0 2.9803-1.085 5.6385-2.8016 7.6361 5.004 1.611 10.1052-.9344 12.2429-5.3968.6477-1.3694 1.0364-2.932 1.0364-4.5914v-46.9767c0-1.6754-.3887-3.222-1.0364-4.6074z" opacity=".8"/><path d="m42.8664 81.4106c-4.0972-1.466-6.8502-5.4452-6.8502-9.9077v-20.7657c0-4.3497 2.6073-8.2322 6.5587-9.7949l34.7854-13.7257c.2105-.0806.4049-.1289.6154-.1933-2.9636-3.4315-7.8219-4.978-12.4696-3.1415l-38.2996 15.1112c-4.3401 1.7076-7.2065 5.9929-7.2065 10.7776v22.8439c0 4.9136 3.0283 9.2794 7.5304 10.9065l38.2834 13.7418c4.5668 1.6432 9.2631.0805 12.1457-3.2542-.1133-.0322-.2105-.0483-.3239-.0967l-34.8016-12.4852z" opacity=".4"/><path d="m80.7933 85.3406-20.7935-7.4741c-3.3847-1.2243-5.6681-4.5269-5.6681-8.2161v-17.2377c0-3.6086 2.1539-6.8306 5.4251-8.1355l21.0365-8.345v-1.2727c0-2.9964-1.085-5.6223-2.8178-7.6361-.2106.0644-.4049.1128-.6154.1933l-34.8016 13.7418c-3.9515 1.5627-6.5587 5.4452-6.5587 9.7949v20.7658c0 4.4624 2.753 8.4255 6.8502 9.9076l34.8016 12.4853c.1133.0322.2105.0644.3239.0966 1.7328-2.0137 2.8016-4.6558 2.8016-7.6361l.0162-.9707z" opacity=".6"/><path d="m54.3307 52.3967v17.2376c0 3.7053 2.2672 7.0079 5.668 8.2161l20.7936 7.4912v-49.4093l-21.0365 8.3449c-3.2712 1.2888-5.4251 4.5269-5.4251 8.1356z"/></g></svg>